HIERARCHY
ROOT mixamorig:Hips
{
	OFFSET 0.000000 201.639420 0.000000
	CHANNELS 6 Xposition Yposition Zposition Xrotation Yrotation Zrotation
	JOINT mixamorig:Spine
	{
		OFFSET 0.006200 19.524994 -2.481800
		CHANNELS 3 Xrotation Yrotation Zrotation
		JOINT mixamorig:Spine1
		{
			OFFSET -0.000900 22.835007 -2.825400
			CHANNELS 3 Xrotation Yrotation Zrotation
			JOINT mixamorig:Spine2
			{
				OFFSET -0.020600 26.552490 -3.193300
				CHANNELS 3 Xrotation Yrotation Zrotation
				JOINT mixamorig:Neck
				{
					OFFSET -0.060000 30.701813 1.352200
					CHANNELS 3 Xrotation Yrotation Zrotation
					JOINT mixamorig:Head
					{
						OFFSET -0.087200 22.547607 3.670900
						CHANNELS 3 Xrotation Yrotation Zrotation
						JOINT mixamorig:HeadTop_End
						{
							OFFSET -0.830600 40.355194 7.893500
							CHANNELS 3 Xrotation Yrotation Zrotation
							End Site
							{
								OFFSET 0.000000 30.592346 0.000000
							}
						}
						JOINT mixamorig:RightEye
						{
							OFFSET -6.302100 18.118591 16.197100
							CHANNELS 3 Xrotation Yrotation Zrotation
							End Site
							{
								OFFSET 0.000000 30.592346 0.000000
							}
						}
						JOINT mixamorig:LeftEye
						{
							OFFSET 6.741500 18.382690 16.401899
							CHANNELS 3 Xrotation Yrotation Zrotation
							End Site
							{
								OFFSET 0.000000 30.592346 0.000000
							}
						}
					}
				}
				JOINT mixamorig:LeftShoulder
				{
					OFFSET 11.924900 18.230499 1.425400
					CHANNELS 3 Xrotation Yrotation Zrotation
					JOINT mixamorig:LeftArm
					{
						OFFSET 25.435989 -0.697632 -5.229300
						CHANNELS 3 Xrotation Yrotation Zrotation
						JOINT mixamorig:LeftForeArm
						{
							OFFSET 54.684776 0.000000 0.000000
							CHANNELS 3 Xrotation Yrotation Zrotation
							JOINT mixamorig:LeftHand
							{
								OFFSET 55.098175 0.000000 0.000000
								CHANNELS 3 Xrotation Yrotation Zrotation
								JOINT mixamorig:LeftHandMiddle1
								{
									OFFSET 23.369751 0.000000 0.000000
									CHANNELS 3 Xrotation Yrotation Zrotation
									JOINT mixamorig:LeftHandMiddle2
									{
										OFFSET 6.378677 0.000000 0.000000
										CHANNELS 3 Xrotation Yrotation Zrotation
										JOINT mixamorig:LeftHandMiddle3
										{
											OFFSET 6.148331 0.000000 0.000000
											CHANNELS 3 Xrotation Yrotation Zrotation
											JOINT mixamorig:LeftHandMiddle4
											{
												OFFSET 6.582504 0.000000 0.000000
												CHANNELS 3 Xrotation Yrotation Zrotation
												End Site
												{
													OFFSET -1.168900 6.395691 1.028606
												}
											}
										}
									}
								}
								JOINT mixamorig:LeftHandThumb1
								{
									OFFSET 7.235672 -3.848206 5.434273
									CHANNELS 3 Xrotation Yrotation Zrotation
									JOINT mixamorig:LeftHandThumb2
									{
										OFFSET 6.568451 -3.792297 3.792300
										CHANNELS 3 Xrotation Yrotation Zrotation
										JOINT mixamorig:LeftHandThumb3
										{
											OFFSET 6.063080 -3.500519 3.500518
											CHANNELS 3 Xrotation Yrotation Zrotation
											JOINT mixamorig:LeftHandThumb4
											{
												OFFSET 4.793182 -2.767334 2.767349
												CHANNELS 3 Xrotation Yrotation Zrotation
												End Site
												{
													OFFSET 0.101639 6.054260 1.275483
												}
											}
										}
									}
								}
								JOINT mixamorig:LeftHandIndex1
								{
									OFFSET 23.101074 -0.309540 4.992809
									CHANNELS 3 Xrotation Yrotation Zrotation
									JOINT mixamorig:LeftHandIndex2
									{
										OFFSET 6.226883 0.000000 0.000000
										CHANNELS 3 Xrotation Yrotation Zrotation
										JOINT mixamorig:LeftHandIndex3
										{
											OFFSET 6.094330 0.000000 0.000000
											CHANNELS 3 Xrotation Yrotation Zrotation
											JOINT mixamorig:LeftHandIndex4
											{
												OFFSET 5.482605 0.000000 0.000000
												CHANNELS 3 Xrotation Yrotation Zrotation
												End Site
												{
													OFFSET -1.427902 5.233032 0.797164
												}
											}
										}
									}
								}
								JOINT mixamorig:LeftHandRing1
								{
									OFFSET 22.299240 0.021149 -3.964172
									CHANNELS 3 Xrotation Yrotation Zrotation
									JOINT mixamorig:LeftHandRing2
									{
										OFFSET 6.321869 0.000000 0.000000
										CHANNELS 3 Xrotation Yrotation Zrotation
										JOINT mixamorig:LeftHandRing3
										{
											OFFSET 5.899796 0.000000 0.000000
											CHANNELS 3 Xrotation Yrotation Zrotation
											JOINT mixamorig:LeftHandRing4
											{
												OFFSET 6.517899 0.000000 0.000000
												CHANNELS 3 Xrotation Yrotation Zrotation
												End Site
												{
													OFFSET -1.637299 6.232208 0.980890
												}
											}
										}
									}
								}
								JOINT mixamorig:LeftHandPinky1
								{
									OFFSET 20.463791 -0.302338 -8.562233
									CHANNELS 3 Xrotation Yrotation Zrotation
									JOINT mixamorig:LeftHandPinky2
									{
										OFFSET 6.908646 0.000000 0.000000
										CHANNELS 3 Xrotation Yrotation Zrotation
										JOINT mixamorig:LeftHandPinky3
										{
											OFFSET 4.622849 0.000000 0.000000
											CHANNELS 3 Xrotation Yrotation Zrotation
											JOINT mixamorig:LeftHandPinky4
											{
												OFFSET 5.216080 0.000000 0.000000
												CHANNELS 3 Xrotation Yrotation Zrotation
												End Site
												{
													OFFSET -0.606308 5.116241 0.814926
												}
											}
										}
									}
								}
							}
						}
					}
				}
				JOINT mixamorig:RightShoulder
				{
					OFFSET -12.001300 18.284088 1.348900
					CHANNELS 3 Xrotation Yrotation Zrotation
					JOINT mixamorig:RightArm
					{
						OFFSET -25.308500 -0.751312 -5.164599
						CHANNELS 3 Xrotation Yrotation Zrotation
						JOINT mixamorig:RightForeArm
						{
							OFFSET -54.684429 0.000000 0.000000
							CHANNELS 3 Xrotation Yrotation Zrotation
							JOINT mixamorig:RightHand
							{
								OFFSET -55.150291 0.000000 0.000000
								CHANNELS 3 Xrotation Yrotation Zrotation
								JOINT mixamorig:RightHandMiddle1
								{
									OFFSET -23.317566 0.000000 0.000000
									CHANNELS 3 Xrotation Yrotation Zrotation
									JOINT mixamorig:RightHandMiddle2
									{
										OFFSET -6.378403 0.000000 0.000000
										CHANNELS 3 Xrotation Yrotation Zrotation
										JOINT mixamorig:RightHandMiddle3
										{
											OFFSET -6.148193 0.000000 0.000000
											CHANNELS 3 Xrotation Yrotation Zrotation
											JOINT mixamorig:RightHandMiddle4
											{
												OFFSET -6.583389 0.000000 0.000000
												CHANNELS 3 Xrotation Yrotation Zrotation
												End Site
												{
													OFFSET 1.171692 6.395905 1.029786
												}
											}
										}
									}
								}
								JOINT mixamorig:RightHandThumb1
								{
									OFFSET -7.190521 -3.860474 5.435846
									CHANNELS 3 Xrotation Yrotation Zrotation
									JOINT mixamorig:RightHandThumb2
									{
										OFFSET -6.567429 -3.791718 3.791708
										CHANNELS 3 Xrotation Yrotation Zrotation
										JOINT mixamorig:RightHandThumb3
										{
											OFFSET -6.062469 -3.500153 3.500166
											CHANNELS 3 Xrotation Yrotation Zrotation
											JOINT mixamorig:RightHandThumb4
											{
												OFFSET -4.792618 -2.767029 2.767022
												CHANNELS 3 Xrotation Yrotation Zrotation
												End Site
												{
													OFFSET -0.100327 6.053253 1.276754
												}
											}
										}
									}
								}
								JOINT mixamorig:RightHandIndex1
								{
									OFFSET -23.048981 -0.310791 4.992554
									CHANNELS 3 Xrotation Yrotation Zrotation
									JOINT mixamorig:RightHandIndex2
									{
										OFFSET -6.227539 0.000000 0.000000
										CHANNELS 3 Xrotation Yrotation Zrotation
										JOINT mixamorig:RightHandIndex3
										{
											OFFSET -6.095047 0.000000 0.000000
											CHANNELS 3 Xrotation Yrotation Zrotation
											JOINT mixamorig:RightHandIndex4
											{
												OFFSET -5.484772 0.000000 0.000000
												CHANNELS 3 Xrotation Yrotation Zrotation
												End Site
												{
													OFFSET 1.420593 5.237305 0.797056
												}
											}
										}
									}
								}
								JOINT mixamorig:RightHandRing1
								{
									OFFSET -22.246323 0.020569 -3.963762
									CHANNELS 3 Xrotation Yrotation Zrotation
									JOINT mixamorig:RightHandRing2
									{
										OFFSET -6.322128 0.000000 0.000000
										CHANNELS 3 Xrotation Yrotation Zrotation
										JOINT mixamorig:RightHandRing3
										{
											OFFSET -5.900024 0.000000 0.000000
											CHANNELS 3 Xrotation Yrotation Zrotation
											JOINT mixamorig:RightHandRing4
											{
												OFFSET -6.518356 0.000000 0.000000
												CHANNELS 3 Xrotation Yrotation Zrotation
												End Site
												{
													OFFSET 1.636398 6.232697 0.982186
												}
											}
										}
									}
								}
								JOINT mixamorig:RightHandPinky1
								{
									OFFSET -20.411011 -0.303314 -8.561701
									CHANNELS 3 Xrotation Yrotation Zrotation
									JOINT mixamorig:RightHandPinky2
									{
										OFFSET -6.907349 0.000000 0.000000
										CHANNELS 3 Xrotation Yrotation Zrotation
										JOINT mixamorig:RightHandPinky3
										{
											OFFSET -4.623840 0.000000 0.000000
											CHANNELS 3 Xrotation Yrotation Zrotation
											JOINT mixamorig:RightHandPinky4
											{
												OFFSET -5.218353 0.000000 0.000000
												CHANNELS 3 Xrotation Yrotation Zrotation
												End Site
												{
													OFFSET 0.602097 5.118835 0.816273
												}
											}
										}
									}
								}
							}
						}
					}
				}
			}
		}
	}
	JOINT mixamorig:LeftUpLeg
	{
		OFFSET 18.168400 -13.561905 -0.039000
		CHANNELS 3 Xrotation Yrotation Zrotation
		JOINT mixamorig:LeftLeg
		{
			OFFSET 0.577358 -80.825211 -3.695000
			CHANNELS 3 Xrotation Yrotation Zrotation
			JOINT mixamorig:LeftFoot
			{
				OFFSET -0.577356 -83.370262 -6.520700
				CHANNELS 3 Xrotation Yrotation Zrotation
				JOINT mixamorig:LeftToeBase
				{
					OFFSET 0.750401 -20.798306 25.135401
					CHANNELS 3 Xrotation Yrotation Zrotation
					JOINT mixamorig:LeftToe_End
					{
						OFFSET -0.000500 0.001200 19.917799
						CHANNELS 3 Xrotation Yrotation Zrotation
						End Site
						{
							OFFSET 0.000000 19.917805 0.000000
						}
					}
				}
			}
		}
	}
	JOINT mixamorig:RightUpLeg
	{
		OFFSET -18.162500 -13.585098 -0.041000
		CHANNELS 3 Xrotation Yrotation Zrotation
		JOINT mixamorig:RightLeg
		{
			OFFSET -0.595024 -80.945297 -3.631900
			CHANNELS 3 Xrotation Yrotation Zrotation
			JOINT mixamorig:RightFoot
			{
				OFFSET 0.595024 -83.218193 -6.561200
				CHANNELS 3 Xrotation Yrotation Zrotation
				JOINT mixamorig:RightToeBase
				{
					OFFSET -0.753601 -20.807106 25.115000
					CHANNELS 3 Xrotation Yrotation Zrotation
					JOINT mixamorig:RightToe_End
					{
						OFFSET 0.000299 0.001700 19.918200
						CHANNELS 3 Xrotation Yrotation Zrotation
						End Site
						{
							OFFSET 0.000000 19.918203 0.000000
						}
					}
				}
			}
		}
	}
}
MOTION
Frames: 6
Frame Time: 0.033333
0.054752 190.194168 -0.346704 -6.940964 -18.184072 -1.678922 2.623110 -0.280904 -0.396350 5.244932 -0.590564 -0.694271 5.244929 -0.590567 -0.694270 5.057522 3.974029 7.205367 -5.294784 8.672198 -9.080603 0.000000 0.000000 -0.000000 0.000000 0.000000 -0.000000 0.000000 0.000000 -0.000000 0.198185 -11.118751 -16.547892 4.547232 -12.242971 -39.228929 -0.073385 -32.970993 0.028085 18.150171 -1.461029 8.838305 1.641874 7.127202 -4.239642 -0.187944 -0.789353 -15.969040 -0.000000 0.000006 0.000002 -0.000000 0.000001 0.000001 7.350865 -14.484249 -10.934821 -1.067072 0.182857 1.946103 0.000016 -0.000020 -0.000003 0.000001 0.000001 -0.000002 5.776122 -9.584553 -10.641323 0.033761 0.666553 -10.636456 -0.000002 -0.000002 0.000005 -0.000002 -0.000001 -0.000003 1.677306 11.039948 -8.046052 -0.183067 -2.876864 -23.912159 -0.000001 0.000015 0.000010 -0.000001 -0.000001 0.000003 0.734600 28.047545 -16.218773 -0.849527 -6.142195 -29.148263 -0.000005 0.000003 0.000001 -0.000001 0.000000 0.000001 -0.104728 17.006602 9.974933 5.182953 -6.126024 51.826967 -0.097080 40.496420 -0.037651 3.984186 18.591254 -18.018968 -1.738469 -1.671003 3.393770 -0.252712 0.798120 21.448283 -0.000003 0.000001 0.000012 0.000002 -0.000000 0.000001 -4.978392 12.391664 9.407255 -1.210150 -0.220431 -2.120997 0.000009 -0.000003 0.000009 -0.000001 0.000002 0.000003 10.258596 13.576557 6.067470 0.012516 -0.647889 4.076601 -0.000004 0.000003 0.000003 -0.000003 0.000004 -0.000003 -0.824282 -13.700962 18.348844 -0.242203 2.213604 16.221196 0.000001 0.000006 0.000009 -0.000001 -0.000002 0.000002 -4.380731 -23.900596 30.060318 -0.233903 5.125303 12.870300 -0.000002 -0.000006 0.000000 -0.000001 -0.000000 0.000000 -11.480354 2.047420 12.506198 34.969681 -0.803869 -1.338635 -15.009250 8.615636 -10.343927 -0.998244 -1.508719 0.563498 0.000000 -0.000000 -0.000000 -14.807191 1.835021 -11.564916 37.783357 -0.165031 1.358592 -17.161345 -4.160902 9.558534 -1.169467 -0.080097 0.223063 0.000000 0.000001 0.000000 
0.094757 190.154129 -0.304766 -6.922368 -18.312581 -1.725285 2.603511 -0.254311 -0.378484 5.205908 -0.536438 -0.661963 5.205907 -0.536442 -0.661963 5.127444 4.054088 7.177504 -5.317832 8.757565 -9.104320 0.000000 -0.000001 -0.000000 0.000000 -0.000001 -0.000000 0.000000 -0.000001 -0.000000 0.184942 -11.144902 -16.660163 5.018128 -12.565484 -39.008856 -0.072934 -33.295970 0.028971 17.850809 -1.293541 8.679139 1.642211 7.104879 -4.266980 -0.187758 -0.788160 -15.954051 -0.000000 0.000006 -0.000004 0.000001 -0.000001 0.000003 7.376777 -14.450250 -10.963836 -1.055620 0.177522 1.944687 0.000016 -0.000019 -0.000002 0.000001 0.000002 -0.000001 5.768804 -9.626886 -10.635492 0.033650 0.666392 -10.627251 -0.000001 -0.000001 0.000006 -0.000000 -0.000001 0.000003 1.670113 11.041456 -7.988842 -0.182304 -2.875562 -23.896697 -0.000003 0.000014 0.000009 -0.000000 0.000000 -0.000001 0.703935 28.109502 -16.112064 -0.843823 -6.137635 -29.093228 -0.000002 0.000004 0.000002 0.000001 0.000000 0.000000 -0.044953 16.817536 9.743079 6.462325 -5.597109 52.114514 -0.096140 41.404241 -0.037610 2.871226 17.491305 -17.526983 -1.740328 -1.655750 3.421297 -0.252138 0.795692 21.406634 -0.000002 0.000003 0.000012 -0.000001 -0.000002 0.000000 -5.274759 12.762483 9.289211 -0.654492 0.005825 -1.885783 0.000008 -0.000005 0.000008 0.000002 -0.000001 0.000001 10.256640 13.623335 6.048696 0.011719 -0.645055 4.005943 0.000003 0.000001 0.000002 0.000003 -0.000002 0.000002 -0.829914 -13.718516 18.293688 -0.242361 2.214032 16.225097 0.000001 -0.000004 0.000013 -0.000003 -0.000003 -0.000000 -4.403276 -23.972040 29.902872 -0.224475 5.107627 12.764680 -0.000003 -0.000006 -0.000001 0.000000 -0.000002 0.000000 -11.523778 2.101023 12.558192 35.084657 -0.833785 -1.345079 -15.095778 8.710492 -10.324493 -0.993383 -1.522560 0.568960 0.000000 0.000001 0.000000 -14.824731 2.141133 -11.421305 37.811388 -0.149589 1.360999 -17.131329 -4.341500 9.566325 -1.186273 -0.110444 0.235497 -0.000000 -0.000002 -0.000000 
0.151188 190.143738 -0.225441 -6.829276 -18.439743 -1.753693 2.569500 -0.256321 -0.369027 5.137906 -0.539604 -0.645764 5.137906 -0.539611 -0.645764 5.153655 4.204141 7.283710 -5.358504 8.980477 -9.231650 -0.000001 0.000000 0.000000 -0.000001 0.000000 0.000000 -0.000001 0.000000 0.000000 0.182013 -11.152355 -16.678629 5.594773 -12.771932 -38.848702 -0.072162 -33.969676 0.030747 17.609032 -1.050541 8.474055 1.644443 7.064229 -4.345282 -0.187873 -0.788855 -15.962985 0.000001 0.000007 -0.000003 0.000001 0.000000 -0.000001 7.439457 -14.354471 -11.046707 -1.032910 0.166997 1.941876 0.000017 -0.000019 -0.000001 0.000002 -0.000001 0.000002 5.767905 -9.594387 -10.671623 0.033869 0.666647 -10.644186 0.000000 -0.000001 0.000008 0.000001 0.000000 -0.000002 1.666287 11.054839 -7.950160 -0.179042 -2.870166 -23.831958 -0.000001 0.000015 0.000008 -0.000002 -0.000001 0.000002 0.631305 28.153480 -15.906923 -0.824542 -6.122133 -28.907198 -0.000003 0.000003 0.000002 -0.000002 0.000000 0.000001 0.054010 16.488483 9.353864 8.994562 -4.233534 52.664785 -0.094454 42.997714 -0.037701 0.528321 15.655649 -16.099439 -1.749193 -1.563448 3.519748 -0.252192 0.795883 21.410095 -0.000001 -0.000000 0.000014 -0.000001 0.000001 -0.000002 -5.999531 13.217783 8.835125 0.768555 0.579284 -1.293626 0.000009 -0.000002 0.000008 -0.000001 0.000000 0.000002 10.234974 13.693966 6.087617 0.010904 -0.642284 3.935623 0.000005 0.000004 0.000002 0.000003 -0.000000 0.000002 -0.823474 -13.711040 18.338612 -0.242211 2.213614 16.221206 0.000004 0.000003 0.000013 -0.000001 0.000001 -0.000001 -4.422267 -24.091720 29.693824 -0.197963 5.057586 12.466052 -0.000003 -0.000004 0.000000 0.000000 -0.000001 -0.000000 -11.600989 2.118594 12.588124 35.149704 -0.878512 -1.351042 -15.167055 8.856586 -10.290511 -0.979102 -1.536837 0.575203 0.000000 0.000000 0.000000 -14.868557 2.432733 -11.283819 37.764239 -0.131758 1.361156 -17.067132 -4.510045 9.584403 -1.226866 -0.165668 0.257863 -0.000000 -0.000001 0.000000 
0.199283 190.174591 -0.097658 -6.686802 -18.491146 -1.764671 2.545601 -0.327202 -0.383686 5.089727 -0.681476 -0.675431 5.089723 -0.681479 -0.675431 5.019351 4.444146 7.682819 -5.406436 9.422394 -9.538158 0.000000 -0.000000 -0.000000 0.000000 -0.000000 -0.000000 0.000000 -0.000000 -0.000000 0.203949 -11.109778 -16.489912 6.148618 -12.855209 -38.855686 -0.071634 -34.833685 0.032961 17.481821 -0.816412 8.432054 1.648115 7.033487 -4.439117 -0.187808 -0.788512 -15.958351 -0.000002 0.000006 0.000001 0.000002 0.000001 -0.000001 7.500810 -14.328697 -11.113339 -1.017134 0.159717 1.939948 0.000016 -0.000020 -0.000003 0.000000 -0.000002 0.000000 5.761224 -9.601112 -10.697380 0.033776 0.666558 -10.637448 0.000000 -0.000002 0.000000 -0.000000 -0.000000 -0.000001 1.655557 11.045141 -7.872573 -0.177603 -2.867717 -23.802905 -0.000002 0.000014 0.000013 0.000001 -0.000000 -0.000001 0.621710 28.241591 -15.843377 -0.802966 -6.104669 -28.698256 -0.000001 0.000004 0.000002 0.000003 -0.000000 0.000001 0.182280 16.031567 8.836416 12.505898 -2.183334 53.644637 -0.091685 45.081646 -0.038598 -1.411134 13.172226 -13.034893 -1.754001 -1.496534 3.547434 -0.251865 0.794630 21.388129 -0.000002 -0.000003 0.000012 0.000002 0.000004 -0.000001 -6.806202 13.571850 8.274595 2.043101 1.051854 -0.788612 0.000006 -0.000002 0.000008 0.000000 0.000002 -0.000001 10.201606 13.831631 6.130833 0.010635 -0.641334 3.912336 -0.000001 0.000005 0.000001 -0.000000 -0.000003 -0.000003 -0.850994 -13.669836 18.251826 -0.243187 2.216422 16.247099 -0.000001 0.000005 0.000012 0.000000 -0.000001 0.000001 -4.448615 -24.409175 29.216360 -0.139324 4.944514 11.794518 -0.000004 -0.000005 -0.000000 0.000000 0.000004 0.000000 -11.697075 2.146566 12.620280 35.138854 -0.910022 -1.353323 -15.203443 8.909599 -10.255936 -0.961758 -1.539084 0.577177 0.000000 -0.000000 0.000000 -14.886734 2.617808 -11.179952 37.629838 -0.124179 1.357455 -17.008500 -4.628707 9.610253 -1.274711 -0.240502 0.288252 -0.000000 -0.000000 0.000000 
0.212555 190.224274 0.069113 -6.554688 -18.439885 -1.760261 2.557180 -0.481457 -0.427256 5.111898 -0.991440 -0.758778 5.111899 -0.991438 -0.758778 4.683456 4.793398 8.407716 -5.445198 10.108959 -10.014141 -0.000000 0.000000 -0.000000 -0.000000 0.000000 -0.000000 -0.000000 0.000000 -0.000000 0.237495 -11.040167 -16.210056 6.690920 -12.952415 -38.874995 -0.071435 -35.619641 0.034965 17.415430 -0.645300 8.563034 1.650349 7.017435 -4.494324 -0.187750 -0.788222 -15.954683 0.000002 0.000005 0.000004 0.000001 -0.000001 0.000002 7.533304 -14.323347 -11.144072 -1.020020 0.161074 1.940292 0.000016 -0.000020 -0.000004 0.000001 0.000000 -0.000002 5.758483 -9.622435 -10.688413 0.033608 0.666324 -10.624017 0.000000 -0.000005 0.000007 -0.000001 0.000000 -0.000001 1.645884 11.030840 -7.805878 -0.177677 -2.867827 -23.804114 -0.000002 0.000015 0.000008 -0.000000 -0.000000 -0.000001 0.630913 28.321830 -15.831438 -0.788795 -6.093114 -28.560689 -0.000002 0.000004 0.000002 -0.000001 0.000000 -0.000000 0.321307 15.491644 8.253327 16.472497 0.083814 55.198758 -0.089211 47.281937 -0.040030 -1.286604 10.239762 -8.495191 -1.750304 -1.404372 3.497433 -0.253302 0.794876 21.372644 -0.000003 -0.000005 0.000015 0.000001 0.000002 -0.000003 -7.387243 14.065066 7.797489 2.982292 1.350590 -0.464035 0.000003 -0.000000 0.000008 -0.000002 0.000003 0.000001 10.151984 13.937918 6.137520 0.010195 -0.640918 3.907398 -0.000001 0.000001 -0.000001 -0.000004 -0.000002 -0.000002 -0.910863 -13.578940 18.071434 -0.244725 2.222569 16.318194 0.000002 0.000008 0.000009 -0.000001 -0.000000 0.000000 -4.471872 -24.660357 28.695742 -0.073462 4.838918 11.186690 -0.000002 -0.000004 0.000000 -0.000002 0.000001 0.000001 -11.776423 2.218750 12.665381 35.079288 -0.911724 -1.351604 -15.216012 8.796227 -10.235969 -0.957856 -1.512513 0.567541 0.000000 -0.000000 0.000000 -14.856631 2.686876 -11.118021 37.478317 -0.120366 1.352917 -16.996420 -4.747325 9.626076 -1.265802 -0.274158 0.302647 -0.000000 -0.000000 0.000000 
0.192937 190.259659 0.255272 -6.480946 -18.318395 -1.754483 2.614559 -0.703917 -0.490467 5.224904 -1.439035 -0.877094 5.224903 -1.439029 -0.877094 4.215130 5.266371 9.382460 -5.504820 11.026871 -10.607500 0.000000 -0.000000 0.000000 0.000000 -0.000000 0.000000 0.000000 -0.000000 0.000000 0.260147 -10.990929 -16.026329 7.245857 -13.113465 -38.706320 -0.071097 -36.275504 0.036935 17.363784 -0.507977 8.574026 1.649736 7.009683 -4.492098 -0.187917 -0.789119 -15.966122 0.000001 0.000006 0.000002 0.000001 0.000000 0.000001 7.532899 -13.833286 -10.930506 -1.039736 0.170193 1.942746 0.000016 -0.000017 -0.000010 0.000000 -0.000000 -0.000000 5.766333 -9.624141 -10.645882 0.033592 0.666337 -10.623443 -0.000001 0.000001 0.000003 0.000001 -0.000000 -0.000004 1.642978 11.029345 -7.783950 -0.178012 -2.868377 -23.810681 -0.000001 0.000014 0.000013 -0.000001 -0.000000 0.000001 0.609314 28.355546 -15.761961 -0.784228 -6.089383 -28.516221 -0.000007 0.000003 0.000002 -0.000001 0.000000 0.000001 0.451314 14.939178 7.677995 20.600627 2.191304 57.389066 -0.089794 49.245968 -0.040385 0.670238 7.302693 -3.551738 -1.735806 -1.226570 3.391852 -0.258348 0.799301 21.392137 -0.000001 0.000003 0.000016 0.000000 0.000003 -0.000002 -7.671786 14.839998 7.361548 3.793490 1.615737 -0.234567 0.000004 0.000001 0.000005 0.000001 -0.000002 0.000001 10.071537 13.943275 6.098069 0.008767 -0.639281 3.881040 -0.000002 0.000004 -0.000001 0.000002 0.000001 -0.000002 -1.000966 -13.419730 17.838408 -0.246527 2.232713 16.453222 -0.000004 0.000008 0.000010 -0.000000 0.000001 0.000000 -4.476469 -24.630466 28.294807 -0.009533 4.783359 10.907004 -0.000003 -0.000003 0.000002 0.000000 0.000000 0.000000 -11.803374 2.290059 12.708858 35.028430 -0.890095 -1.348322 -15.236436 8.610339 -10.233272 -0.967653 -1.488017 0.557786 0.000000 -0.000000 0.000000 -14.769635 2.704814 -11.081124 37.364065 -0.096679 1.351252 -17.009838 -4.919594 9.625413 -1.206106 -0.255870 0.296399 0.000000 0.000000 0.000000 
